<svg width="38" height="38" viewBox="0 0 38 38" fill="none" xmlns="http://www.w3.org/2000/svg">
<path d="M18.9997 23.7499C20.6794 23.7499 22.2903 23.0827 23.478 21.8949C24.6657 20.7072 25.333 19.0963 25.333 17.4166V7.91658C25.333 6.23688 24.6657 4.62597 23.478 3.43824C22.2903 2.25051 20.6794 1.58325 18.9997 1.58325C17.32 1.58325 15.7091 2.25051 14.5213 3.43824C13.3336 4.62597 12.6663 6.23688 12.6663 7.91658V17.4166C12.6663 19.0963 13.3336 20.7072 14.5213 21.8949C15.7091 23.0827 17.32 23.7499 18.9997 23.7499ZM15.833 7.91658C15.833 7.07673 16.1666 6.27128 16.7605 5.67741C17.3544 5.08355 18.1598 4.74992 18.9997 4.74992C19.8395 4.74992 20.645 5.08355 21.2388 5.67741C21.8327 6.27128 22.1663 7.07673 22.1663 7.91658V17.4166C22.1663 18.2564 21.8327 19.0619 21.2388 19.6558C20.645 20.2496 19.8395 20.5833 18.9997 20.5833C18.1598 20.5833 17.3544 20.2496 16.7605 19.6558C16.1666 19.0619 15.833 18.2564 15.833 17.4166V7.91658ZM31.6663 17.4166C31.6663 16.9967 31.4995 16.5939 31.2026 16.297C30.9057 16.0001 30.5029 15.8333 30.083 15.8333C29.6631 15.8333 29.2604 16.0001 28.9634 16.297C28.6665 16.5939 28.4997 16.9967 28.4997 17.4166C28.4997 19.9361 27.4988 22.3525 25.7172 24.1341C23.9356 25.9157 21.5192 26.9166 18.9997 26.9166C16.4801 26.9166 14.0638 25.9157 12.2822 24.1341C10.5006 22.3525 9.49967 19.9361 9.49967 17.4166C9.49967 16.9967 9.33286 16.5939 9.03593 16.297C8.73899 16.0001 8.33627 15.8333 7.91634 15.8333C7.49642 15.8333 7.09369 16.0001 6.79676 16.297C6.49982 16.5939 6.33301 16.9967 6.33301 17.4166C6.3358 20.4998 7.46307 23.4761 9.50347 25.7876C11.5439 28.0991 14.3573 29.587 17.4163 29.9724V33.2499H14.2497C13.8297 33.2499 13.427 33.4167 13.1301 33.7137C12.8332 34.0106 12.6663 34.4133 12.6663 34.8333C12.6663 35.2532 12.8332 35.6559 13.1301 35.9528C13.427 36.2498 13.8297 36.4166 14.2497 36.4166H23.7497C24.1696 36.4166 24.5723 36.2498 24.8693 35.9528C25.1662 35.6559 25.333 35.2532 25.333 34.8333C25.333 34.4133 25.1662 34.0106 24.8693 33.7137C24.5723 33.4167 24.1696 33.2499 23.7497 33.2499H20.583V29.9724C23.642 29.587 26.4555 28.0991 28.4959 25.7876C30.5363 23.4761 31.6635 20.4998 31.6663 17.4166Z" fill="#2FB69E"/>
</svg>
