<svg width="152" height="152" viewBox="0 0 152 152" fill="none" xmlns="http://www.w3.org/2000/svg">
<circle cx="76" cy="76" r="76" fill="#D5F8F2"/>
<circle cx="76" cy="76" r="52" fill="#61CAB8"/>
<circle cx="76" cy="76" r="39" fill="#2FB69E"/>
<path d="M76.0003 82.5C78.2989 82.5 80.5033 81.5869 82.1286 79.9616C83.7539 78.3363 84.667 76.1319 84.667 73.8334V60.8334C84.667 58.5348 83.7539 56.3304 82.1286 54.7051C80.5033 53.0798 78.2989 52.1667 76.0003 52.1667C73.7018 52.1667 71.4974 53.0798 69.8721 54.7051C68.2468 56.3304 67.3337 58.5348 67.3337 60.8334V73.8334C67.3337 76.1319 68.2468 78.3363 69.8721 79.9616C71.4974 81.5869 73.7018 82.5 76.0003 82.5ZM71.667 60.8334C71.667 59.6841 72.1235 58.5819 72.9362 57.7692C73.7489 56.9566 74.8511 56.5 76.0003 56.5C77.1496 56.5 78.2518 56.9566 79.0645 57.7692C79.8771 58.5819 80.3337 59.6841 80.3337 60.8334V73.8334C80.3337 74.9826 79.8771 76.0848 79.0645 76.8975C78.2518 77.7101 77.1496 78.1667 76.0003 78.1667C74.8511 78.1667 73.7489 77.7101 72.9362 76.8975C72.1235 76.0848 71.667 74.9826 71.667 73.8334V60.8334ZM93.3337 73.8334C93.3337 73.2587 93.1054 72.7076 92.6991 72.3013C92.2927 71.895 91.7416 71.6667 91.167 71.6667C90.5924 71.6667 90.0413 71.895 89.6349 72.3013C89.2286 72.7076 89.0003 73.2587 89.0003 73.8334C89.0003 77.2812 87.6307 80.5878 85.1927 83.0257C82.7547 85.4637 79.4481 86.8334 76.0003 86.8334C72.5525 86.8334 69.2459 85.4637 66.8079 83.0257C64.37 80.5878 63.0003 77.2812 63.0003 73.8334C63.0003 73.2587 62.7721 72.7076 62.3657 72.3013C61.9594 71.895 61.4083 71.6667 60.8337 71.6667C60.259 71.6667 59.7079 71.895 59.3016 72.3013C58.8953 72.7076 58.667 73.2587 58.667 73.8334C58.6708 78.0525 60.2134 82.1254 63.0055 85.2885C65.7977 88.4515 69.6476 90.4876 73.8337 91.015V95.5H69.5003C68.9257 95.5 68.3746 95.7283 67.9683 96.1346C67.5619 96.5409 67.3337 97.092 67.3337 97.6667C67.3337 98.2413 67.5619 98.7924 67.9683 99.1987C68.3746 99.6051 68.9257 99.8334 69.5003 99.8334H82.5003C83.075 99.8334 83.6261 99.6051 84.0324 99.1987C84.4387 98.7924 84.667 98.2413 84.667 97.6667C84.667 97.092 84.4387 96.5409 84.0324 96.1346C83.6261 95.7283 83.075 95.5 82.5003 95.5H78.167V91.015C82.353 90.4876 86.203 88.4515 88.9951 85.2885C91.7873 82.1254 93.3298 78.0525 93.3337 73.8334Z" fill="white"/>
</svg>
