<svg width="99" height="25" viewBox="0 0 99 25" fill="none" xmlns="http://www.w3.org/2000/svg">
<path d="M34.7559 10.5625C34.4922 9.0332 33.2617 8.1543 31.7148 8.1543C29.623 8.1543 28.1641 9.75391 28.1641 12.6367C28.1641 15.5547 29.6406 17.1191 31.7148 17.1191C33.2266 17.1191 34.457 16.2754 34.7559 14.7812H37.0586C36.707 17.2246 34.7031 19.1758 31.6797 19.1758C28.3223 19.1758 25.8613 16.7324 25.8613 12.6367C25.8613 8.52344 28.3574 6.09766 31.6797 6.09766C34.4922 6.09766 36.6719 7.73242 37.0586 10.5625H34.7559ZM38.4824 16.3105C38.4824 14.166 40.2578 13.5332 42.0332 13.4277C42.6924 13.3838 44.0635 13.3047 44.4766 13.2871V12.5312C44.4766 11.582 43.8613 11.0371 42.7539 11.0371C41.752 11.0371 41.1367 11.4941 40.9609 12.1797H38.7988C38.957 10.5625 40.416 9.33203 42.8066 9.33203C44.6172 9.33203 46.709 10.0703 46.709 12.6191V19H44.5645V17.6816H44.4941C44.0723 18.4902 43.1758 19.1934 41.6816 19.1934C39.8535 19.1934 38.4824 18.1914 38.4824 16.3105ZM40.6445 16.293C40.6445 17.1191 41.3125 17.541 42.2617 17.541C43.6152 17.541 44.4941 16.6445 44.4941 15.5723V14.7812L42.3848 14.9219C41.3125 15.0098 40.6445 15.4492 40.6445 16.293ZM48.8184 19V9.45508H50.998V11.0371H51.1035C51.4375 9.94727 52.3691 9.31445 53.459 9.31445C53.7051 9.31445 54.0566 9.33203 54.2676 9.36719V11.4414C54.0742 11.3711 53.5996 11.3008 53.2305 11.3008C51.9824 11.3008 51.0684 12.1621 51.0684 13.375V19H48.8184ZM59.5234 19.1934C56.6406 19.1934 54.8828 17.2773 54.8828 14.2891C54.8828 11.3359 56.6758 9.33203 59.4004 9.33203C61.7383 9.33203 63.7598 10.791 63.7598 14.1484V14.8516H57.0977C57.124 16.4775 58.082 17.4355 59.541 17.4355C60.5254 17.4355 61.1934 17.0137 61.4746 16.4512H63.6719C63.2676 18.1035 61.7383 19.1934 59.5234 19.1934ZM57.1152 13.3223H61.6152C61.5977 12.0215 60.7363 11.0723 59.4355 11.0723C58.082 11.0723 57.1855 12.1006 57.1152 13.3223ZM65.6055 19V6.27344H67.8906V17.0664H73.5156V19H65.6055ZM75.2383 19V9.45508H77.4883V19H75.2383ZM76.3809 8.10156C75.6777 8.10156 75.0801 7.55664 75.0801 6.87109C75.0801 6.20312 75.6777 5.6582 76.3809 5.6582C77.1016 5.6582 77.6816 6.20312 77.6816 6.87109C77.6816 7.55664 77.1016 8.10156 76.3809 8.10156ZM81.8828 13.4102V19H79.6328V9.45508H81.7773V11.0723H81.9004C82.3398 10 83.3066 9.33203 84.7305 9.33203C86.7168 9.33203 88.0176 10.6328 88 12.918V19H85.7676V13.2695C85.7676 11.9863 85.082 11.2305 83.9043 11.2305C82.709 11.2305 81.8828 12.0215 81.8828 13.4102ZM90.1445 19V6.27344H92.3945V13.2871H92.5527L95.9805 9.45508H98.5996L94.9082 13.5684L98.8281 19H96.1562L93.2207 14.9043L92.3945 15.7832V19H90.1445Z" fill="#34C9B0"/>
<path d="M12.7263 14.7289L11.7539 14.3607C12.0143 13.6732 12.457 12.9274 13.1549 12.1519L13.9294 12.8487C13.3133 13.5336 12.9393 14.1664 12.7263 14.7289Z" fill="#34C9B0"/>
<path fill-rule="evenodd" clip-rule="evenodd" d="M8.10573 3.646C5.22656 3.646 3.125 6.5835 3.125 9.75225C3.125 16.8252 12.5 21.3543 12.5 21.3543C12.5 21.3543 21.875 16.5335 21.875 9.75225C21.875 6.58454 19.7734 3.646 16.8948 3.646C14.8969 3.646 13.4141 4.96423 12.5 6.83402C11.5849 4.96423 10.1031 3.646 8.10573 3.646ZM8.85417 12.9996C8.85417 14.4616 10.4906 14.9283 11.688 14.5397C11.1161 16.233 11.6474 17.5522 12.1203 18.0627L12.8844 17.3543C12.6948 17.1502 12.2594 16.3054 12.6193 15.0512C13.2479 16.2163 16.1458 16.3632 16.1458 14.1658V8.3335C14.6448 9.60381 13.0411 10.1059 11.7214 10.5194C10.0641 11.0382 8.85417 11.4168 8.85417 12.9996Z" fill="#34C9B0"/>
</svg>
