<svg width="46" height="46" viewBox="0 0 46 46" fill="none" xmlns="http://www.w3.org/2000/svg">
<circle cx="23" cy="23" r="23" fill="#34C9B0"/>
<path d="M23.3248 26.2093L21.9246 25.679C22.2996 24.689 22.9371 23.615 23.9421 22.4983L25.0573 23.5018C24.1701 24.488 23.6316 25.3993 23.3248 26.2093Z" fill="white"/>
<path fill-rule="evenodd" clip-rule="evenodd" d="M16.6722 10.25C12.5262 10.25 9.5 14.48 9.5 19.043C9.5 29.228 23 35.75 23 35.75C23 35.75 36.5 28.808 36.5 19.043C36.5 14.4815 33.4737 10.25 29.3285 10.25C26.4515 10.25 24.3162 12.1483 23 14.8408C21.6823 12.1483 19.5485 10.25 16.6722 10.25ZM17.75 23.7192C17.75 25.8245 20.1065 26.4965 21.8307 25.937C21.0072 28.3752 21.7723 30.275 22.4532 31.01L23.5535 29.99C23.2805 29.696 22.6535 28.4795 23.1718 26.6735C24.077 28.3512 28.25 28.5627 28.25 25.3985V17C26.0885 18.8293 23.7792 19.5522 21.8787 20.1478C19.4922 20.8948 17.75 21.44 17.75 23.7192Z" fill="white"/>
</svg>
